<svg id="eIRlcjfH1zm1" xmlns="http://www.w3.org/2000/svg" xmlns:xlink="http://www.w3.org/1999/xlink" viewBox="0 0 300 300" shape-rendering="geometricPrecision" text-rendering="geometricPrecision"><ellipse rx="55.505951" ry="56.515151" transform="matrix(-1.735604 0 0 1.411784 149.188191 149.471057)" fill="#b4c8ef" stroke-width="0"/><g transform="matrix(.520739-.853716 0.853716 0.520739-7.661562 251.326552)"><g transform="translate(.000001 0)"><ellipse rx="9.93766" ry="10.319877" transform="translate(67.651297 87.169576)" fill="#767b87" stroke-width="0"/><g transform="translate(.000001 0)"><ellipse rx="9.93766" ry="10.319877" transform="translate(67.651297 87.169576)" fill="#767b87" stroke-width="0"/><line x1="-14.524272" y1="7.262135" x2="14.524272" y2="-7.262135" transform="matrix(.245913-.158055 0.235239 0.366003 61.019512 98.712629)" fill="none" stroke="#767b87" stroke-width="3"/><line x1="-14.524272" y1="7.262135" x2="14.524272" y2="-7.262135" transform="matrix(.259696-.13421 0.199751 0.386517 67.750174 97.49266)" fill="none" stroke="#767b87" stroke-width="3"/></g><line x1="-14.524272" y1="7.262135" x2="14.524272" y2="-7.262135" transform="matrix(.245913-.158055 0.235239 0.366003 61.019512 98.712629)" fill="none" stroke="#767b87" stroke-width="3"/><line x1="-14.524272" y1="7.262135" x2="14.524272" y2="-7.262135" transform="matrix(.259696-.13421 0.199751 0.386517 67.750174 97.49266)" fill="none" stroke="#767b87" stroke-width="3"/></g><line x1="-14.524272" y1="7.262135" x2="14.524272" y2="-7.262135" transform="matrix(.245913-.158055 0.235239 0.366003 58.698228 93.396705)" fill="none" stroke="#767b87" stroke-width="3"/></g><g transform="matrix(.984006 0.178136-.178136 0.984006 15.523593-12.059504)"><g transform="translate(.000001 0)"><ellipse rx="9.93766" ry="10.319877" transform="translate(67.651297 87.169576)" fill="#767b87" stroke-width="0"/><g transform="translate(.000001 0)"><ellipse rx="9.93766" ry="10.319877" transform="translate(67.651297 87.169576)" fill="#767b87" stroke-width="0"/><line x1="-14.524272" y1="7.262135" x2="14.524272" y2="-7.262135" transform="matrix(.245913-.158055 0.235239 0.366003 61.019512 98.712629)" fill="none" stroke="#767b87" stroke-width="3"/><line x1="-14.524272" y1="7.262135" x2="14.524272" y2="-7.262135" transform="matrix(.259696-.13421 0.199751 0.386517 67.750174 97.49266)" fill="none" stroke="#767b87" stroke-width="3"/></g><line x1="-14.524272" y1="7.262135" x2="14.524272" y2="-7.262135" transform="matrix(.245913-.158055 0.235239 0.366003 61.019512 98.712629)" fill="none" stroke="#767b87" stroke-width="3"/><line x1="-14.524272" y1="7.262135" x2="14.524272" y2="-7.262135" transform="matrix(.259696-.13421 0.199751 0.386517 67.750174 97.49266)" fill="none" stroke="#767b87" stroke-width="3"/></g><line x1="-14.524272" y1="7.262135" x2="14.524272" y2="-7.262135" transform="matrix(.245913-.158055 0.235239 0.366003 58.698228 93.396705)" fill="none" stroke="#767b87" stroke-width="3"/></g><g transform="matrix(-.094161 0.995557-.995557-.094161 297.06778 2.52995)"><g transform="translate(.000001 0)"><ellipse rx="9.93766" ry="10.319877" transform="translate(67.651297 87.169576)" fill="#767b87" stroke-width="0"/><line x1="-14.524272" y1="7.262135" x2="14.524272" y2="-7.262135" transform="matrix(.245913-.158055 0.235239 0.366003 61.019512 98.712629)" fill="none" stroke="#767b87" stroke-width="3"/><line x1="-14.524272" y1="7.262135" x2="14.524272" y2="-7.262135" transform="matrix(.259696-.13421 0.199751 0.386517 67.750174 97.49266)" fill="none" stroke="#767b87" stroke-width="3"/></g><line x1="-14.524272" y1="7.262135" x2="14.524272" y2="-7.262135" transform="matrix(.245913-.158055 0.235239 0.366003 58.698228 93.396705)" fill="none" stroke="#767b87" stroke-width="3"/></g><g transform="matrix(-.985599 0.169101-.169101-.985599 305.934037 269.617786)"><g transform="translate(.000001 0)"><ellipse rx="9.93766" ry="10.319877" transform="translate(67.651297 87.169576)" fill="#767b87" stroke-width="0"/><line x1="-14.524272" y1="7.262135" x2="14.524272" y2="-7.262135" transform="matrix(.245913-.158055 0.235239 0.366003 61.019512 98.712629)" fill="none" stroke="#767b87" stroke-width="3"/><line x1="-14.524272" y1="7.262135" x2="14.524272" y2="-7.262135" transform="matrix(.259696-.13421 0.199751 0.386517 67.750174 97.49266)" fill="none" stroke="#767b87" stroke-width="3"/></g><line x1="-14.524272" y1="7.262135" x2="14.524272" y2="-7.262135" transform="matrix(.245913-.158055 0.235239 0.366003 58.698228 93.396705)" fill="none" stroke="#767b87" stroke-width="3"/></g><g transform="translate(-1.003638 0)"><g><g transform="translate(.000001 0)"><g transform="translate(.000001 0)"><ellipse rx="9.93766" ry="10.319877" transform="translate(67.651297 173.072244)" fill="#767b87" stroke-width="0"/></g><line x1="-14.524272" y1="7.262135" x2="14.524272" y2="-7.262135" transform="matrix(.121831-.240388 0.535027 0.271156 66.674452 184.982754)" fill="none" stroke="#767b87" stroke-width="3"/></g><line x1="-14.524272" y1="7.262135" x2="14.524272" y2="-7.262135" transform="matrix(.121831-.240388 0.535027 0.271156 75.726398 181.938178)" fill="none" stroke="#767b87" stroke-width="3"/></g><line x1="-14.524272" y1="7.262135" x2="14.524272" y2="-7.262135" transform="matrix(.121831-.240388 0.535027 0.271156 70.559888 181.938178)" fill="none" stroke="#767b87" stroke-width="3"/></g><g transform="matrix(-.321269 0.946988-.946988-.321269 324.411433 38.055169)"><g><g transform="translate(.000001 0)"><g transform="translate(.000001 0)"><ellipse rx="9.93766" ry="10.319877" transform="translate(67.651297 173.072244)" fill="#767b87" stroke-width="0"/></g><line x1="-14.524272" y1="7.262135" x2="14.524272" y2="-7.262135" transform="matrix(.121831-.240388 0.535027 0.271156 66.674452 184.982754)" fill="none" stroke="#767b87" stroke-width="3"/></g><g transform="translate(.000001 0)"><g transform="translate(.000001 0)"><ellipse rx="9.93766" ry="10.319877" transform="translate(67.651297 173.072244)" fill="#767b87" stroke-width="0"/></g><line x1="-14.524272" y1="7.262135" x2="14.524272" y2="-7.262135" transform="matrix(.121831-.240388 0.535027 0.271156 66.674452 184.982754)" fill="none" stroke="#767b87" stroke-width="3"/></g><line x1="-14.524272" y1="7.262135" x2="14.524272" y2="-7.262135" transform="matrix(.121831-.240388 0.535027 0.271156 75.726398 181.938178)" fill="none" stroke="#767b87" stroke-width="3"/></g><line x1="-14.524272" y1="7.262135" x2="14.524272" y2="-7.262135" transform="matrix(.121831-.240388 0.535027 0.271156 70.559888 181.938178)" fill="none" stroke="#767b87" stroke-width="3"/></g><g transform="matrix(-.976391-.216012 0.216012-.976391 255.726973 311.821785)"><g><g transform="translate(.000001 0)"><g transform="translate(.000001 0)"><ellipse rx="9.93766" ry="10.319877" transform="translate(67.651297 173.072244)" fill="#767b87" stroke-width="0"/></g><line x1="-14.524272" y1="7.262135" x2="14.524272" y2="-7.262135" transform="matrix(.121831-.240388 0.535027 0.271156 66.674452 184.982754)" fill="none" stroke="#767b87" stroke-width="3"/></g><g transform="translate(.000001 0)"><g transform="translate(.000001 0)"><ellipse rx="9.93766" ry="10.319877" transform="translate(67.651297 173.072244)" fill="#767b87" stroke-width="0"/></g><line x1="-14.524272" y1="7.262135" x2="14.524272" y2="-7.262135" transform="matrix(.121831-.240388 0.535027 0.271156 66.674452 184.982754)" fill="none" stroke="#767b87" stroke-width="3"/></g><line x1="-14.524272" y1="7.262135" x2="14.524272" y2="-7.262135" transform="matrix(.121831-.240388 0.535027 0.271156 75.726398 181.938178)" fill="none" stroke="#767b87" stroke-width="3"/></g><line x1="-14.524272" y1="7.262135" x2="14.524272" y2="-7.262135" transform="matrix(.121831-.240388 0.535027 0.271156 70.559888 181.938178)" fill="none" stroke="#767b87" stroke-width="3"/></g><g transform="matrix(.06504-.997883 0.997883 0.06504 5.174861 303.873451)"><g><g transform="translate(.000001 0)"><g transform="translate(.000001 0)"><ellipse rx="9.93766" ry="10.319877" transform="translate(67.651297 173.072244)" fill="#767b87" stroke-width="0"/></g><line x1="-14.524272" y1="7.262135" x2="14.524272" y2="-7.262135" transform="matrix(.121831-.240388 0.535027 0.271156 66.674452 184.982754)" fill="none" stroke="#767b87" stroke-width="3"/></g><g transform="translate(.000001 0)"><g transform="translate(.000001 0)"><ellipse rx="9.93766" ry="10.319877" transform="translate(67.651297 173.072244)" fill="#767b87" stroke-width="0"/></g><line x1="-14.524272" y1="7.262135" x2="14.524272" y2="-7.262135" transform="matrix(.121831-.240388 0.535027 0.271156 66.674452 184.982754)" fill="none" stroke="#767b87" stroke-width="3"/></g><line x1="-14.524272" y1="7.262135" x2="14.524272" y2="-7.262135" transform="matrix(.121831-.240388 0.535027 0.271156 75.726398 181.938178)" fill="none" stroke="#767b87" stroke-width="3"/></g><line x1="-14.524272" y1="7.262135" x2="14.524272" y2="-7.262135" transform="matrix(.121831-.240388 0.535027 0.271156 70.559888 181.938178)" fill="none" stroke="#767b87" stroke-width="3"/></g><line x1="-14.524272" y1="7.262135" x2="14.524272" y2="-7.262135" transform="matrix(.112827-.244743 0.544719 0.251118 80.168621 216.142059)" fill="none" stroke="#767b87" stroke-width="3"/><line x1="-14.524272" y1="7.262135" x2="14.524272" y2="-7.262135" transform="matrix(.112827-.244743 0.544719 0.251118 216.381199 90.565705)" fill="none" stroke="#767b87" stroke-width="3"/><line x1="-14.524272" y1="0.590273" x2="-0.312664" y2="-7.262135" transform="matrix(.241795-.119014 0.264886 0.538159 53.13921 137.978545)" fill="none" stroke="#767b87" stroke-width="3"/><line x1="-14.524272" y1="0.590273" x2="-0.312664" y2="-7.262135" transform="matrix(.260554-.068852 0.153243 0.57991 218.527439 225.401073)" fill="none" stroke="#767b87" stroke-width="3"/><line x1="-14.524272" y1="0.590273" x2="-0.312664" y2="-7.262135" transform="matrix(.164646 0.213356-.474862 0.36645 141.962938 247.325592)" fill="none" stroke="#767b87" stroke-width="3"/><line x1="-14.524272" y1="0.590273" x2="-0.312664" y2="-7.262135" transform="matrix(.266753 0.038364-.085385 0.593707 94.972798 59.234723)" fill="none" stroke="#767b87" stroke-width="3"/><path d="M185.730329,103.583784l-14.394014-4.620749-14.379305,1.52346-17.665739,6.287161-11.851887,9.401598-13.13801,14.193549-5.81527,19.102251l3.158742,23.601187l11.953672,10.219487l10.042039,5.182484l11.719409,4.215165l12.87299,2.454074h13.103356l10.944371-1.680467" transform="translate(.000003 0.000005)" fill="none" stroke="#000" stroke-width="8"/></svg>
